<html>
<head>
<meta charset="UTF-8">
<meta name="viewport" content="width=device-width, initial-scale=1.0"/>

<style>
.comment
{
    padding-left: 20px;
    margin-top: 4px;
    margin-right: 4px;
    margin-bottom: 4px;
    border: 2px #000 solid;
}
.submission
{
    border: 4px #00f solid;
    padding-left: 20px;
}
.hidden
{
    display: none;
}
</style>
</head>
<body><div class="submission" id="t3_6urm1t">
    <p class="userinfo">
        <a href="https://www.reddit.com/u/Matt14451">Matt14451</a>
        <span class="score"> | 25 points</span>
        <span class="timestamp"> | Aug 19 2017 21:09:49</span>
    </p>
    <strong>[TV] The Good Place 1080p x264</strong>
    <p><p>http://links.snahp.it/163TGP_s01</p>
<p>Trying to do other modern comedies like Superstore, Superior Donuts and The Grinder but the torrents are slow</p></p>
    <p class="toolbar">
        <a href="https://www.reddit.com/r/megalinks/comments/6urm1t">permalink</a>
    </p>
</div>
<div class="comment" id="t1_dluumj0">
    <p class="userinfo">
        <a
        class="toggle_hide_button"
        href="javascript:void(0)"
        onclick="toggle_collapse(this.parentElement.parentElement)">[-]
        </a>
        <a href="https://www.reddit.com/u/Matt14451">Matt14451</a>
        <span class="score"> | 2 points</span>
        <span class="timestamp"> | Aug 19 2017 21:12:59</span>
    </p>
    <div class="collapsible">
        <p>General
Unique ID                                : 197879882234055949269324018856865113575 (0x94DE4770630F60E7A4383D28522D25E7)
Complete name                            : E:\Video\The Good Place\The Good Place 1 11 - What's My Motivation.mkv
Format                                   : Matroska
Format version                           : Version 4 / Version 2
File size                                : 864 MiB
Duration                                 : 21 min 28 s
Overall bit rate                         : 5 624 kb/s
Movie name                               : The.Good.Place.S01E11.1080p.WEB-DL.DD5.1.H264-RARBG
Encoded date                             : UTC 2017-01-14 08:19:26
Writing application                      : mkvmerge v9.6.0 ('Slave To Your Mind') 64bit
Writing library                          : libebml v1.3.4 + libmatroska v1.4.5
Cover                                    : Yes
Attachments                              : cover_land.jpg / small_cover.jpg / small_cover_land.jpg / cover.jpg</p>
<p>Video
ID                                       : 1
Format                                   : AVC
Format/Info                              : Advanced Video Codec
Format profile                           : High@L4
Format settings, CABAC                   : Yes
Format settings, RefFrames               : 4 frames
Codec ID                                 : V_MPEG4/ISO/AVC
Duration                                 : 21 min 28 s
Bit rate                                 : 5 128 kb/s
Width                                    : 1 920 pixels
Height                                   : 1 080 pixels
Display aspect ratio                     : 16:9
Frame rate mode                          : Constant
Frame rate                               : 23.976 (24000/1001) FPS
Color space                              : YUV
Chroma subsampling                       : 4:2:0
Bit depth                                : 8 bits
Scan type                                : Progressive
Bits/(Pixel*Frame)                       : 0.103
Stream size                              : 788 MiB (91%)
Title                                    : The.Good.Place.S01E11.1080p.WEB-DL.DD5.1.H264-RARBG
Language                                 : English
Default                                  : Yes
Forced                                   : No
Color range                              : Limited
Color primaries                          : BT.709
Transfer characteristics                 : BT.709
Matrix coefficients                      : BT.709</p>
<p>Audio
ID                                       : 2
Format                                   : AC-3
Format/Info                              : Audio Coding 3
Format settings, Endianness              : Big
Codec ID                                 : A_AC3
Duration                                 : 21 min 28 s
Bit rate mode                            : Constant
Bit rate                                 : 384 kb/s
Channel(s)                               : 6 channels
Channel positions                        : Front: L C R, Side: L R, LFE
Sampling rate                            : 48.0 kHz
Frame rate                               : 31.250 FPS (1536 SPF)
Bit depth                                : 16 bits
Compression mode                         : Lossy
Stream size                              : 59.0 MiB (7%)
Title                                    : The.Good.Place.S01E11.1080p.WEB-DL.DD5.1.H264-RARBG
Language                                 : English
Service kind                             : Complete Main
Default                                  : Yes
Forced                                   : No</p>
<p>Text #1
ID                                       : 3
Format                                   : UTF-8
Codec ID                                 : S_TEXT/UTF8
Codec ID/Info                            : UTF-8 Plain Text
Language                                 : English
Default                                  : Yes
Forced                                   : No</p>
<p>Text #2
ID                                       : 4
Format                                   : UTF-8
Codec ID                                 : S_TEXT/UTF8
Codec ID/Info                            : UTF-8 Plain Text
Title                                    : SDH
Language                                 : English
Default                                  : No
Forced                                   : No</p>
        <p class="toolbar">
            <a href="https://www.reddit.com/r/megalinks/comments/6urm1t/_/dluumj0">permalink</a>
        </p>
        
    </div>
</div>
</body>

<script>
function toggle_collapse(comment_div)
{
    var button = comment_div.getElementsByClassName("toggle_hide_button")[0];
    var collapsible = comment_div.getElementsByClassName("collapsible")[0];
    if (collapsible.classList.contains("hidden"))
    {
        collapsible.classList.remove("hidden");
        button.innerText = "[-]";
    }
    else
    {
        collapsible.classList.add("hidden");
        button.innerText = "[+]";
    }
}
</script>
</html>
